<?xml version="1.0" encoding="utf-8"?>
<!-- Generator: Adobe Illustrator 24.3.0, SVG Export Plug-In . SVG Version: 6.00 Build 0)  -->
<svg version="1.1" id="Layer_1" xmlns="http://www.w3.org/2000/svg" xmlns:xlink="http://www.w3.org/1999/xlink" x="0px" y="0px"
	 viewBox="0 0 184.6 45" style="enable-background:new 0 0 184.6 45;" xml:space="preserve">
<style type="text/css">
	.st0{fill:url(#SVGID_1_);}
	.st1{fill:#FFB74D;}
	.st2{fill:#FFE0B2;}
	.st3{fill:#FFCC80;}
	.st4{fill:#EF5350;}
	.st5{fill:#FFFFFF;}
</style>
<linearGradient id="SVGID_1_" gradientUnits="userSpaceOnUse" x1="57.2073" y1="70.4372" x2="187.2076" y2="70.4372" gradientTransform="matrix(1 0 0 -1 0 94.7703)">
	<stop  offset="0" style="stop-color:#16222A"/>
	<stop  offset="1" style="stop-color:#3A6073"/>
</linearGradient>
<path class="st0" d="M78.2,5.9c2.2,0,4.1,0.3,5.7,0.9c1.6,0.6,3,1.4,4.2,2.5v7.4c-0.8-0.6-1.7-1.2-2.6-1.8c-0.9-0.6-2-1.1-3.1-1.5
	c-1.1-0.4-2.5-0.6-4-0.6c-2.1,0-4,0.5-5.7,1.5c-1.7,1-3.1,2.4-4.1,4.1c-1,1.7-1.5,3.7-1.5,5.9c0,2.2,0.5,4.1,1.5,5.9
	c1,1.7,2.4,3.1,4.1,4.1c1.7,1,3.6,1.5,5.7,1.5c2.4,0,4.3-0.4,5.9-1.1c1.6-0.7,3.1-1.6,4.4-2.7v7.1c-1.2,1.1-2.7,2-4.5,2.6
	c-1.8,0.6-3.8,0.9-6,0.9c-2.5,0-4.9-0.4-7.2-1.3c-2.2-0.9-4.2-2.2-6-3.8c-1.7-1.7-3.1-3.6-4.1-5.9c-1-2.2-1.5-4.7-1.5-7.5
	s0.5-5.2,1.5-7.5c1-2.2,2.3-4.2,4.1-5.8c1.7-1.7,3.7-2.9,6-3.8C73.3,6.3,75.7,5.9,78.2,5.9z M112.7,35.4V42H93.4v-6.6h6V13.3h-6V6.7
	h19.2v6.6h-6v22.1H112.7z M155.3,6.4V42h-7.3V20.5l-9.1,9.9h-2.1l-9.2-9.9V42h-7.3V6.4h2.5l15.1,15.7l15-15.7H155.3z M172.8,6
	c2,0,3.9,0.3,5.6,0.8c1.7,0.6,3.1,1.2,4.3,2V16c-1.3-0.8-2.6-1.5-4.1-2.2c-1.4-0.7-3.1-1-4.9-1c-0.9,0-1.8,0.1-2.7,0.4
	c-0.9,0.3-1.6,0.7-2.2,1.3c-0.6,0.6-0.8,1.3-0.8,2.2c0,1.2,0.5,2,1.5,2.6c1,0.6,2.3,1.2,3.7,1.8l4.3,1.8c2.5,1.1,4.3,2.3,5.4,3.8
	c1.2,1.5,1.7,3.2,1.7,5.2c0,2.1-0.6,4-1.8,5.6c-1.2,1.6-2.8,2.8-4.9,3.7c-2,0.9-4.2,1.4-6.7,1.4c-2.1,0-4.1-0.4-6-1.1
	c-1.9-0.7-3.6-1.6-5-2.6v-7.2c1.5,1.1,3.3,2.1,5.1,2.8c1.9,0.8,3.8,1.2,6,1.2c1.5,0,2.7-0.3,3.8-0.8c1.1-0.6,1.6-1.5,1.6-2.6
	c0-0.9-0.4-1.7-1.3-2.2c-0.8-0.6-1.8-1.1-2.8-1.5l-5.4-2.1c-2.7-1.1-4.6-2.4-5.6-4.1c-0.9-1.7-1.4-3.6-1.4-5.7c0-2.1,0.6-4,1.7-5.6
	c1.2-1.6,2.7-2.9,4.6-3.7C168.5,6.4,170.6,6,172.8,6z"/>
<path class="st1" d="M14.3,10.6c-3.1,0-5.6,2.5-5.6,5.6c0-3.1-2.5-5.6-5.6-5.6c3.1,0,5.6-2.5,5.6-5.6C8.7,8.1,11.2,10.6,14.3,10.6z"
	/>
<path class="st1" d="M8.7,23c-1.8,0-3.2,1.4-3.2,3.2C5.5,24.4,4,23,2.2,23c1.8,0,3.2-1.4,3.2-3.2C5.5,21.5,6.9,23,8.7,23z"/>
<path class="st1" d="M25.5,5.7c-1.4,0-2.5,1.1-2.5,2.5c0-1.4-1.1-2.5-2.5-2.5c1.4,0,2.5-1.1,2.5-2.5C23,4.6,24.1,5.7,25.5,5.7z"/>
<path class="st1" d="M20.1,1.6c-0.9,0-1.6,0.7-1.6,1.6c0-0.9-0.7-1.6-1.6-1.6c0.9,0,1.6-0.7,1.6-1.6C18.5,0.9,19.2,1.6,20.1,1.6z"/>
<g>
	<path class="st2" d="M20.3,26.2V45H2.4C1.1,45,0,43.9,0,42.6V38c0-1.4,0.8-2.7,2.1-3.3L20.3,26.2z"/>
</g>
<g>
	<path class="st3" d="M34.2,12.3V45H13.9V24c0-1.4,0.8-2.7,2.1-3.3L34.2,12.3z"/>
</g>
<g>
	<path class="st1" d="M48.5,3.3v39c0,1.5-1.2,2.7-2.7,2.7H28.2V9.7c0-1.3,0.8-2.5,1.9-3l13.6-6.4C46-0.7,48.5,0.9,48.5,3.3z"/>
</g>
<path class="st4" d="M29.3,40.5c6.2,0,11.1-5,11.1-11.1c0-6.2-5-11.1-11.1-11.1c-6.2,0-11.1,5-11.1,11.1
	C18.2,35.5,23.2,40.5,29.3,40.5z"/>
<path class="st5" d="M29,33.6c0.2,0,0.4,0,0.6-0.1c0.2-0.1,0.4-0.2,0.6-0.3c0.2-0.1,0.4-0.3,0.6-0.5c0.2-0.2,0.3-0.4,0.5-0.6
	s0.2-0.4,0.3-0.6c0.1-0.2,0.1-0.4,0.1-0.6c0-0.3-0.1-0.6-0.2-0.9l-0.1,0c0,0.1,0,0.2-0.1,0.4c0,0.1-0.1,0.2-0.2,0.3
	c-0.1,0.1-0.2,0.2-0.3,0.2c-0.1,0.1-0.3,0.1-0.5,0.1c-0.2,0-0.4,0-0.6-0.1c-0.2-0.1-0.3-0.2-0.4-0.3c-0.1-0.1-0.2-0.3-0.3-0.4
	c-0.1-0.2-0.1-0.3-0.1-0.5c0-0.1,0-0.3,0.1-0.5c0-0.2,0.1-0.3,0.3-0.5s0.3-0.3,0.6-0.4c0.2-0.1,0.5-0.2,0.9-0.2
	c0.4,0,0.8,0.1,1.2,0.2c0.3,0.2,0.6,0.4,0.8,0.6c0.2,0.2,0.4,0.5,0.5,0.9c0.1,0.3,0.2,0.7,0.2,1c0,0.4-0.1,0.8-0.2,1.2
	c-0.1,0.4-0.3,0.7-0.5,1c-0.2,0.3-0.5,0.6-0.8,0.8c-0.3,0.2-0.6,0.5-0.9,0.6c-0.3,0.2-0.6,0.3-0.9,0.4c-0.3,0.1-0.6,0.1-0.8,0.1
	c-0.1,0-0.3,0-0.5-0.1c-0.2,0-0.4-0.1-0.6-0.2c-0.2-0.1-0.4-0.2-0.6-0.4c-0.2-0.2-0.4-0.4-0.5-0.6c-0.2-0.3-0.3-0.6-0.4-0.9
	c-0.1-0.4-0.1-0.8-0.1-1.3v-4h-1.7v-1.4h1.7v-2.1l0,0c0,0-0.1,0-0.1,0c0,0-0.1,0-0.1,0c-0.1,0-0.2,0-0.3-0.1c-0.1,0-0.2-0.1-0.3-0.2
	c-0.1-0.1-0.1-0.2-0.2-0.3c0-0.1-0.1-0.2-0.1-0.3c0-0.1,0-0.2,0.1-0.4c0-0.1,0.1-0.2,0.2-0.3c0.1-0.1,0.2-0.2,0.4-0.3
	c0.2-0.1,0.3-0.1,0.5-0.1c0.3,0,0.5,0.1,0.7,0.2c0.2,0.1,0.3,0.3,0.5,0.5c0.1,0.2,0.2,0.4,0.2,0.7c0,0.3,0.1,0.5,0.1,0.8v1.7h5.5
	v1.4h-5.5v3.8c0,0.3,0,0.6,0.1,0.8c0,0.2,0.1,0.4,0.2,0.6c0.1,0.2,0.1,0.3,0.2,0.4c0.1,0.1,0.2,0.2,0.2,0.2c0.1,0,0.2,0.1,0.2,0.1
	C28.9,33.6,28.9,33.6,29,33.6z"/>
</svg>
