<?xml version="1.0" encoding="utf-8"?>
<!-- Generator: Adobe Illustrator 24.3.0, SVG Export Plug-In . SVG Version: 6.00 Build 0)  -->
<svg version="1.1" id="Layer_1" xmlns="http://www.w3.org/2000/svg" xmlns:xlink="http://www.w3.org/1999/xlink" x="0px" y="0px"
	 viewBox="0 0 48.5 45" style="enable-background:new 0 0 48.5 45;" xml:space="preserve">
<style type="text/css">
	.st0{fill:#FFB74D;}
	.st1{fill:#FFE0B2;}
	.st2{fill:#FFCC80;}
	.st3{fill:#EF5350;}
	.st4{fill:#FFFFFF;}
</style>
<path class="st0" d="M14.3,10.6c-3.1,0-5.6,2.5-5.6,5.6c0-3.1-2.5-5.6-5.6-5.6c3.1,0,5.6-2.5,5.6-5.6C8.7,8.1,11.2,10.6,14.3,10.6z"
	/>
<path class="st0" d="M8.7,23c-1.8,0-3.2,1.4-3.2,3.2C5.5,24.4,4,23,2.2,23c1.8,0,3.2-1.4,3.2-3.2C5.5,21.5,6.9,23,8.7,23z"/>
<path class="st0" d="M25.5,5.7c-1.4,0-2.5,1.1-2.5,2.5c0-1.4-1.1-2.5-2.5-2.5c1.4,0,2.5-1.1,2.5-2.5C23,4.6,24.1,5.7,25.5,5.7z"/>
<path class="st0" d="M20.1,1.6c-0.9,0-1.6,0.7-1.6,1.6c0-0.9-0.7-1.6-1.6-1.6c0.9,0,1.6-0.7,1.6-1.6C18.5,0.9,19.2,1.6,20.1,1.6z"/>
<g>
	<path class="st1" d="M20.3,26.2V45H2.4C1.1,45,0,43.9,0,42.6V38c0-1.4,0.8-2.7,2.1-3.3L20.3,26.2z"/>
</g>
<g>
	<path class="st2" d="M34.2,12.3V45H13.9V24c0-1.4,0.8-2.7,2.1-3.3L34.2,12.3z"/>
</g>
<g>
	<path class="st0" d="M48.5,3.3v39c0,1.5-1.2,2.7-2.7,2.7H28.2V9.7c0-1.3,0.8-2.5,1.9-3l13.6-6.4C46-0.7,48.5,0.9,48.5,3.3z"/>
</g>
<path class="st3" d="M29.3,40.5c6.2,0,11.1-5,11.1-11.1c0-6.2-5-11.1-11.1-11.1c-6.2,0-11.1,5-11.1,11.1S23.2,40.5,29.3,40.5z"/>
<path class="st4" d="M29,33.6c0.2,0,0.4,0,0.6-0.1s0.4-0.2,0.6-0.3s0.4-0.3,0.6-0.5s0.3-0.4,0.5-0.6s0.2-0.4,0.3-0.6
	c0.1-0.2,0.1-0.4,0.1-0.6c0-0.3-0.1-0.6-0.2-0.9h-0.1c0,0.1,0,0.2-0.1,0.4c0,0.1-0.1,0.2-0.2,0.3c-0.1,0.1-0.2,0.2-0.3,0.2
	C30.7,31,30.5,31,30.3,31s-0.4,0-0.6-0.1s-0.3-0.2-0.4-0.3c-0.1-0.1-0.2-0.3-0.3-0.4c-0.1-0.2-0.1-0.3-0.1-0.5c0-0.1,0-0.3,0.1-0.5
	c0-0.2,0.1-0.3,0.3-0.5s0.3-0.3,0.6-0.4c0.2-0.1,0.5-0.2,0.9-0.2s0.8,0.1,1.2,0.2c0.3,0.2,0.6,0.4,0.8,0.6s0.4,0.5,0.5,0.9
	c0.1,0.3,0.2,0.7,0.2,1c0,0.4-0.1,0.8-0.2,1.2c-0.1,0.4-0.3,0.7-0.5,1s-0.5,0.6-0.8,0.8s-0.6,0.5-0.9,0.6c-0.3,0.2-0.6,0.3-0.9,0.4
	c-0.3,0.1-0.6,0.1-0.8,0.1c-0.1,0-0.3,0-0.5-0.1c-0.2,0-0.4-0.1-0.6-0.2c-0.2-0.1-0.4-0.2-0.6-0.4s-0.4-0.4-0.5-0.6
	c-0.2-0.3-0.3-0.6-0.4-0.9c-0.1-0.4-0.1-0.8-0.1-1.3v-4H25V26h1.7v-2.1l0,0h-0.1h-0.1c-0.1,0-0.2,0-0.3-0.1c-0.1,0-0.2-0.1-0.3-0.2
	c-0.1-0.1-0.1-0.2-0.2-0.3c0-0.1-0.1-0.2-0.1-0.3c0-0.1,0-0.2,0.1-0.4c0-0.1,0.1-0.2,0.2-0.3c0.1-0.1,0.2-0.2,0.4-0.3
	c0.2-0.1,0.3-0.1,0.5-0.1c0.3,0,0.5,0.1,0.7,0.2s0.3,0.3,0.5,0.5c0.1,0.2,0.2,0.4,0.2,0.7c0,0.3,0.1,0.5,0.1,0.8v1.7h5.5v1.4h-5.5
	V31c0,0.3,0,0.6,0.1,0.8c0,0.2,0.1,0.4,0.2,0.6c0.1,0.2,0.1,0.3,0.2,0.4C28.9,32.9,29,33,29,33c0.1,0,0.2,0.1,0.2,0.1
	C28.9,33.6,28.9,33.6,29,33.6z"/>
</svg>
